<mxfile host="65bd71144e">
    <diagram id="Eta_5O8y3xlfuj0lOopE" name="Page-1">
        <mxGraphModel dx="1382" dy="917" grid="1" gridSize="10" guides="1" tooltips="1" connect="1" arrows="1" fold="1" page="1" pageScale="1" pageWidth="1200" pageHeight="1920" math="0" shadow="0">
            <root>
                <mxCell id="0"/>
                <mxCell id="1" parent="0"/>
                <mxCell id="2" value="" style="swimlane;startSize=20;horizontal=0;childLayout=treeLayout;horizontalTree=1;resizable=0;containerType=tree;" parent="1" vertex="1">
                    <mxGeometry x="80" y="160" width="660" height="640" as="geometry"/>
                </mxCell>
                <mxCell id="3" value="Filestore" style="whiteSpace=wrap;html=1;" parent="2" vertex="1">
                    <mxGeometry x="40" y="260" width="100" height="40" as="geometry"/>
                </mxCell>
                <mxCell id="4" value="Key Features" style="whiteSpace=wrap;html=1;fillColor=#330066;fontColor=#FFFFFF;fontStyle=1" parent="2" vertex="1">
                    <mxGeometry x="190" y="100" width="100" height="40" as="geometry"/>
                </mxCell>
                <mxCell id="5" value="" style="edgeStyle=elbowEdgeStyle;elbow=horizontal;html=1;rounded=0;" parent="2" source="3" target="4" edge="1">
                    <mxGeometry relative="1" as="geometry"/>
                </mxCell>
                <mxCell id="6" value="Use cases" style="whiteSpace=wrap;html=1;fontColor=#FFFFFF;fontStyle=1;fillColor=#B3B3B3;" parent="2" vertex="1">
                    <mxGeometry x="190" y="420" width="100" height="40" as="geometry"/>
                </mxCell>
                <mxCell id="7" value="" style="edgeStyle=elbowEdgeStyle;elbow=horizontal;html=1;rounded=0;" parent="2" source="3" target="6" edge="1">
                    <mxGeometry relative="1" as="geometry"/>
                </mxCell>
                <mxCell id="8" value="" style="edgeStyle=elbowEdgeStyle;elbow=horizontal;html=1;rounded=0;" parent="2" source="4" target="9" edge="1">
                    <mxGeometry relative="1" as="geometry">
                        <mxPoint x="220" y="192" as="sourcePoint"/>
                    </mxGeometry>
                </mxCell>
                <mxCell id="9" value="Fully managed network attached storage (NAS) for compute engine and GKE instances" style="whiteSpace=wrap;html=1;fillColor=#330066;fontColor=#FFFFFF;fontStyle=1" parent="2" vertex="1">
                    <mxGeometry x="340" y="20" width="300" height="40" as="geometry"/>
                </mxCell>
                <mxCell id="10" value="" style="edgeStyle=elbowEdgeStyle;elbow=horizontal;html=1;rounded=0;" parent="2" source="4" target="11" edge="1">
                    <mxGeometry relative="1" as="geometry">
                        <mxPoint x="370" y="152" as="sourcePoint"/>
                    </mxGeometry>
                </mxCell>
                <mxCell id="11" value="Predictable performance through fine-tune" style="whiteSpace=wrap;html=1;fillColor=#330066;fontColor=#FFFFFF;fontStyle=1" parent="2" vertex="1">
                    <mxGeometry x="340" y="100" width="300" height="40" as="geometry"/>
                </mxCell>
                <mxCell id="12" value="" style="edgeStyle=elbowEdgeStyle;elbow=horizontal;html=1;rounded=0;" parent="2" source="4" target="13" edge="1">
                    <mxGeometry relative="1" as="geometry">
                        <mxPoint x="370" y="232" as="sourcePoint"/>
                    </mxGeometry>
                </mxCell>
                <mxCell id="13" value="Full NFSv3 support" style="whiteSpace=wrap;html=1;fillColor=#330066;fontColor=#FFFFFF;fontStyle=1" parent="2" vertex="1">
                    <mxGeometry x="340" y="180" width="300" height="40" as="geometry"/>
                </mxCell>
                <mxCell id="14" value="" style="edgeStyle=elbowEdgeStyle;elbow=horizontal;html=1;rounded=0;" parent="2" source="6" target="15" edge="1">
                    <mxGeometry relative="1" as="geometry">
                        <mxPoint x="220" y="440" as="sourcePoint"/>
                    </mxGeometry>
                </mxCell>
                <mxCell id="15" value="Application migration" style="whiteSpace=wrap;html=1;fontColor=#FFFFFF;fontStyle=1;fillColor=#B3B3B3;" parent="2" vertex="1">
                    <mxGeometry x="340" y="260" width="180" height="40" as="geometry"/>
                </mxCell>
                <mxCell id="16" value="" style="edgeStyle=elbowEdgeStyle;elbow=horizontal;html=1;rounded=0;" parent="2" source="6" target="17" edge="1">
                    <mxGeometry relative="1" as="geometry">
                        <mxPoint x="370" y="520" as="sourcePoint"/>
                    </mxGeometry>
                </mxCell>
                <mxCell id="17" value="Media rendering" style="whiteSpace=wrap;html=1;fontColor=#FFFFFF;fontStyle=1;fillColor=#B3B3B3;" parent="2" vertex="1">
                    <mxGeometry x="340" y="340" width="180" height="40" as="geometry"/>
                </mxCell>
                <mxCell id="18" value="" style="edgeStyle=elbowEdgeStyle;elbow=horizontal;html=1;rounded=0;" parent="2" source="6" target="19" edge="1">
                    <mxGeometry relative="1" as="geometry">
                        <mxPoint x="370" y="540" as="sourcePoint"/>
                    </mxGeometry>
                </mxCell>
                <mxCell id="19" value="Electronc Design Automation" style="whiteSpace=wrap;html=1;fontColor=#FFFFFF;fontStyle=1;fillColor=#B3B3B3;" parent="2" vertex="1">
                    <mxGeometry x="340" y="420" width="180" height="40" as="geometry"/>
                </mxCell>
                <mxCell id="20" value="" style="edgeStyle=elbowEdgeStyle;elbow=horizontal;html=1;rounded=0;" parent="2" source="6" target="21" edge="1">
                    <mxGeometry relative="1" as="geometry">
                        <mxPoint x="370" y="560" as="sourcePoint"/>
                    </mxGeometry>
                </mxCell>
                <mxCell id="21" value="Data Analytics" style="whiteSpace=wrap;html=1;fontColor=#FFFFFF;fontStyle=1;fillColor=#B3B3B3;" parent="2" vertex="1">
                    <mxGeometry x="340" y="500" width="180" height="40" as="geometry"/>
                </mxCell>
                <mxCell id="22" value="" style="edgeStyle=elbowEdgeStyle;elbow=horizontal;html=1;rounded=0;" parent="2" source="6" target="23" edge="1">
                    <mxGeometry relative="1" as="geometry">
                        <mxPoint x="370" y="580" as="sourcePoint"/>
                    </mxGeometry>
                </mxCell>
                <mxCell id="23" value="Genomics processing" style="whiteSpace=wrap;html=1;fontColor=#FFFFFF;fontStyle=1;fillColor=#B3B3B3;" parent="2" vertex="1">
                    <mxGeometry x="340" y="580" width="180" height="40" as="geometry"/>
                </mxCell>
            </root>
        </mxGraphModel>
    </diagram>
</mxfile>